<svg width="1018" height="1135" viewBox="0 0 1018 1135" fill="none" xmlns="http://www.w3.org/2000/svg">
<path d="M17 34C17 22.9543 25.9543 14 37 14H981C992.046 14 1001 22.9543 1001 34V1101C1001 1112.05 992.046 1121 981 1121H37C25.9543 1121 17 1112.05 17 1101V34Z" fill="#EF392B"/>
<path d="M539.5 910.5V838H725.5C725.5 838 626 990 673 1010.5C703 1023.59 719 968.5 719 968.5V1069.5H533C533 1069.5 642.5 936 589.5 896.5C570.152 882.081 539.5 910.5 539.5 910.5Z" fill="white"/>
<path d="M771.5 910.5V838H957.5C957.5 838 858 990 905 1010.5C935 1023.59 951 968.5 951 968.5V1069.5H765C765 1069.5 874.5 936 821.5 896.5C802.152 882.081 771.5 910.5 771.5 910.5Z" fill="white"/>
<path d="M409.5 836.5H493.5C493.5 836.5 479 882.901 479 913.5C479 1011.5 467.874 1074.5 391 1074.5C318.219 1074.5 306 1033 306 913.5C306 882.574 286.401 836.62 287.5 836.5H380C380 836.5 331.556 985.593 391 988.5C450.726 991.421 409.5 836.5 409.5 836.5Z" fill="white"/>
<path d="M68 1067C81.0589 977.179 81.0406 926.821 68 837C68 837 219.826 822.376 239 877.5C255 923.5 215 942.5 215 942.5C215 942.5 257.5 937 257.5 1011.5C257.5 1086 68 1067 68 1067Z" fill="#FFFEFE"/>
<path d="M133.048 927.443C136.87 904.102 136.944 891.42 133.984 869.373C133.984 869.373 187.66 869.305 186.001 897.041C184.374 924.235 133.048 927.443 133.048 927.443Z" fill="#EF392B"/>
<path d="M139.769 1033.1C141.533 1009.52 140.497 996.878 135.618 975.175C135.618 975.175 189.082 970.409 189.857 998.184C190.617 1025.42 139.769 1033.1 139.769 1033.1Z" fill="#EF392B"/>
<path d="M303.5 48H112.5C112.5 48 125.224 156 112.5 284.5C103.515 375.234 67 513.5 67 513.5H215.5C208.5 427.5 206 389 232 313.5C265.5 383.5 258.817 435.395 276 513.5H392.5C392.5 513.5 387.052 456.71 392.5 421C397.735 386.684 418.5 336 418.5 336C418.5 336 421.111 504.771 473 593.5C518.387 671.111 556.769 717.301 639.5 752.5C720.81 787.094 821.5 787 865.5 763.5C909.5 740 975.346 676.5 958 615C951.936 593.5 941.5 563 883.5 555.5C850.219 551.196 820.042 581.473 821.5 615C823.5 661 871.722 633.358 865.5 655.5C848.5 716 742.466 688.041 676 655.5C639.5 637.63 586.5 585 556.5 439C525.988 290.507 556.5 48 556.5 48H373C373 48 372.892 94.3698 362.5 142.5C353 186.5 330.5 230 330.5 230C330.5 230 312.176 176.297 308 140.5C301 80.5 303.5 48 303.5 48Z" fill="#FFFDFD"/>
</svg>
