<svg xmlns="http://www.w3.org/2000/svg" viewBox="0 0 100 100" width="100" height="100">
  <!-- Background with rounded corners -->
  <rect x="0" y="0" width="100" height="100" rx="16" ry="16" fill="#D93F2B"/>

  <!-- M with decorative swash tail - scaled down -->
  <g fill="#FFECB4">
    <!-- Main M body -->
    <path d="
      M 18 18
      C 18 14, 20 12, 24 12
      L 34 12
      C 38 12, 40 14, 42 18
      L 50 42
      L 58 18
      C 60 14, 62 12, 66 12
      L 76 12
      C 80 12, 82 14, 82 18
      L 82 72
      C 82 76, 80 78, 76 78
      L 72 78
      C 68 78, 66 76, 66 72
      L 66 38
      L 56 58
      C 54 62, 52 64, 50 64
      C 48 64, 46 62, 44 58
      L 34 38
      L 34 72
      C 34 76, 32 78, 28 78
      L 24 78
      C 20 78, 18 76, 18 72
      Z
    "/>

    <!-- Decorative swash/curl -->
    <path d="
      M 66 56
      C 66 56, 68 58, 72 62
      C 78 68, 84 76, 84 84
      C 84 92, 76 98, 66 98
      C 58 98, 54 94, 56 88
      C 58 84, 62 85, 66 85
      C 72 85, 76 82, 76 78
      C 76 74, 72 70, 66 68
      Z
    "/>
  </g>
</svg>
