<svg xmlns="http://www.w3.org/2000/svg" viewBox="0 0 280 80" width="280" height="80">
  <!-- M Icon with swash -->
  <g>
    <!-- Icon background -->
    <rect x="0" y="0" width="80" height="80" rx="12" ry="12" fill="#D93F2B"/>

    <!-- M with swash -->
    <g fill="#FFECB4">
      <path d="
        M 14 14
        C 14 11, 16 9, 19 9
        L 27 9
        C 30 9, 32 11, 34 14
        L 40 34
        L 46 14
        C 48 11, 50 9, 53 9
        L 61 9
        C 64 9, 66 11, 66 14
        L 66 58
        C 66 61, 64 63, 61 63
        L 58 63
        C 55 63, 53 61, 53 58
        L 53 30
        L 45 47
        C 44 50, 42 51, 40 51
        C 38 51, 36 50, 35 47
        L 27 30
        L 27 58
        C 27 61, 25 63, 22 63
        L 19 63
        C 16 63, 14 61, 14 58
        Z
      "/>

      <!-- Swash curl -->
      <path d="
        M 53 45
        C 53 45, 55 47, 58 50
        C 62 55, 67 61, 67 68
        C 67 75, 61 79, 53 79
        C 47 79, 44 76, 45 71
        C 46 68, 50 68, 53 68
        C 58 68, 61 66, 61 63
        C 61 60, 58 57, 53 55
        Z
      "/>
    </g>
  </g>

  <!-- BUZZ text -->
  <g fill="#D93F2B">
    <!-- B -->
    <path d="
      M 95 20
      L 95 62
      C 95 64, 96 65, 98 65
      L 118 65
      C 128 65, 136 62, 140 55
      C 143 50, 141 44, 135 40
      C 140 36, 143 30, 139 24
      C 135 18, 126 16, 116 16
      L 98 16
      C 96 16, 95 17, 95 19
      Z
      M 108 28
      L 115 28
      C 121 28, 125 30, 125 34
      C 125 38, 121 40, 115 40
      L 108 40
      Z
      M 108 48
      L 116 48
      C 124 48, 128 50, 128 55
      C 128 59, 124 62, 116 62
      L 108 62
      Z
    " transform="rotate(-2, 117, 40)"/>

    <!-- U -->
    <path d="
      M 148 16
      L 148 48
      C 148 58, 158 66, 172 66
      C 186 66, 196 58, 196 48
      L 196 16
      C 196 14, 194 12, 192 12
      L 184 12
      C 182 12, 180 14, 180 16
      L 180 46
      C 180 52, 177 56, 172 56
      C 167 56, 164 52, 164 46
      L 164 16
      C 164 14, 162 12, 160 12
      L 152 12
      C 150 12, 148 14, 148 16
      Z
    " transform="rotate(-1, 172, 39)"/>

    <!-- Z (first) -->
    <path d="
      M 205 16
      L 205 24
      C 205 26, 206 28, 208 30
      L 228 56
      L 210 56
      C 206 56, 204 58, 204 62
      L 204 64
      C 204 66, 206 68, 210 68
      L 245 68
      C 249 68, 252 66, 252 62
      L 252 54
      C 252 52, 251 50, 249 48
      L 229 22
      L 245 22
      C 249 22, 252 20, 252 16
      L 252 14
      C 252 12, 249 10, 245 10
      L 210 10
      C 206 10, 205 12, 205 16
      Z
    " transform="rotate(-3, 228, 39)"/>

    <!-- Z (second) -->
    <path d="
      M 255 16
      L 255 24
      C 255 26, 256 28, 258 30
      L 278 56
      L 260 56
      C 256 56, 254 58, 254 62
      L 254 64
      C 254 66, 256 68, 260 68
      L 295 68
      C 299 68, 302 66, 302 62
      L 302 54
      C 302 52, 301 50, 299 48
      L 279 22
      L 295 22
      C 299 22, 302 20, 302 16
      L 302 14
      C 302 12, 299 10, 295 10
      L 260 10
      C 256 10, 255 12, 255 16
      Z
    " transform="translate(-22, 0) rotate(-4, 278, 39)"/>
  </g>
</svg>
