<svg width="963" height="963" viewBox="0 0 963 963" fill="none" xmlns="http://www.w3.org/2000/svg">
<path d="M60.2819 352C36.0202 352 14.0154 362.255 4.6117 378.033C-4.79205 393.811 0.474051 411.823 17.7769 423.788L361.202 664.001V814.809C361.202 825.984 367.596 836.634 378.881 844.523L499.249 928.67C516.552 940.766 542.318 944.316 564.887 937.742C587.456 931.168 601.938 915.917 601.938 898.956V664.001L945.363 423.919C962.666 411.823 967.744 393.811 958.34 378.033C948.936 362.255 927.12 352 902.858 352H60.2819Z" fill="#1F2937"/>
<rect x="57" y="120" width="199" height="210" rx="6" fill="#6366F1"/>
<rect x="290" y="49" width="177" height="153" rx="8" fill="#EC4899"/>
<rect x="501" y="3" width="175" height="273" rx="8" fill="#10B981"/>
<rect x="710" y="172" width="207" height="158" rx="6" fill="#F59E0B"/>
</svg>
