<svg width="963" height="963" viewBox="0 0 963 963" fill="none" xmlns="http://www.w3.org/2000/svg">
<path d="M60.2819 217C36.0202 217 14.0154 229.606 4.6117 249C-4.79205 268.394 0.474051 290.535 17.7769 305.242L361.202 600.513V785.885C361.202 799.623 367.596 812.713 378.881 822.41L499.249 925.844C516.552 940.713 542.318 945.076 564.887 936.996C587.456 928.915 601.938 910.167 601.938 889.319V600.513L945.363 305.403C962.666 290.535 967.744 268.394 958.34 249C948.936 229.606 927.12 217 902.858 217H60.2819Z" fill="#1F2937"/>
<rect x="57" y="71" width="199" height="128" rx="6" fill="#6366F1"/>
<rect x="290" y="37" width="177" height="162" rx="8" fill="#EC4899"/>
<rect x="501" y="37" width="175" height="162" rx="8" fill="#10B981"/>
<rect x="710" y="71" width="207" height="128" rx="6" fill="#F59E0B"/>
</svg>
